<?xml version="1.0" standalone="no"?>
<!DOCTYPE svg PUBLIC "-//W3C//DTD SVG 20010904//EN"
 "http://www.w3.org/TR/2001/REC-SVG-20010904/DTD/svg10.dtd">
<svg version="1.0" xmlns="http://www.w3.org/2000/svg"
 width="694.000000pt" height="140.000000pt" viewBox="0 0 694.000000 140.000000"
 preserveAspectRatio="xMidYMid meet">

<g transform="translate(0.000000,140.000000) scale(0.100000,-0.100000)"
fill="#000000" stroke="none">
<path d="M3134 1308 c67 -96 106 -199 106 -285 l0 -43 -435 0 -435 0 0 53 c0
50 -2 53 -43 79 l-42 27 -3 -79 -3 -80 -694 0 -695 0 0 54 c0 51 -2 54 -40 80
-22 14 -42 26 -45 26 -3 0 -5 -36 -5 -79 l0 -80 -52 -3 c-49 -3 -53 -5 -56
-30 -3 -28 -2 -28 52 -28 l56 0 0 -201 c0 -185 2 -204 20 -234 23 -38 74 -65
119 -65 61 0 112 33 155 101 l17 27 -45 26 c-24 14 -47 26 -49 26 -2 0 -7 -22
-11 -49 -11 -83 -61 -125 -99 -83 -15 16 -17 48 -17 236 l0 217 173 -3 172 -3
3 -66 c2 -50 -1 -69 -13 -79 -15 -13 -21 -40 -7 -40 4 0 32 10 62 21 36 15 79
22 127 23 62 1 74 -2 97 -23 34 -32 36 -65 4 -55 -121 38 -247 6 -313 -80 -76
-99 28 -207 186 -193 30 3 74 14 97 26 34 17 42 19 49 7 4 -8 25 -21 47 -30
l39 -16 -5 167 c-5 188 -14 220 -71 250 -35 18 -115 23 -190 10 l-48 -8 3 43
3 43 485 0 485 0 5 -205 c6 -230 11 -249 75 -276 75 -31 153 -4 204 70 l31 44
-47 26 c-25 15 -47 25 -48 24 -2 -2 -8 -28 -14 -58 -6 -30 -19 -62 -28 -72
-21 -24 -60 -23 -73 1 -6 12 -10 106 -10 236 l0 216 150 -2 150 -1 0 -157 c0
-86 5 -173 10 -193 34 -123 197 -183 313 -115 43 26 47 26 47 9 0 -14 15 -26
49 -41 27 -11 52 -21 55 -21 3 0 6 97 6 215 l0 215 -55 0 -55 0 0 -123 c0
-107 -3 -128 -22 -167 -13 -25 -38 -55 -57 -67 -40 -27 -106 -30 -139 -7 -47
32 -52 60 -52 264 l0 191 238 -3 237 -3 3 -232 2 -233 36 -15 c20 -8 38 -15
40 -15 2 0 4 48 4 108 0 127 15 167 83 236 70 69 157 74 157 8 0 -54 -54 -88
-124 -80 -31 3 -36 0 -50 -30 l-16 -34 90 -109 91 -109 30 22 c16 12 29 24 29
26 0 3 -25 36 -56 74 -47 58 -52 69 -37 74 82 25 118 63 116 121 -2 63 -62
103 -155 103 -31 0 -71 -9 -97 -20 -24 -11 -47 -20 -53 -20 -5 0 -8 28 -6 63
l3 62 210 0 210 0 3 -66 c2 -50 -1 -69 -13 -79 -15 -13 -21 -40 -7 -40 4 0 32
10 62 21 36 15 79 22 127 23 62 1 74 -2 97 -23 34 -32 36 -65 4 -55 -118 38
-235 11 -306 -71 -89 -100 15 -217 179 -202 30 3 74 14 97 26 36 18 43 19 48
7 5 -13 53 -36 77 -36 6 0 8 59 5 163 -6 182 -15 214 -71 244 -35 19 -126 23
-194 10 l-43 -9 0 46 0 47 213 -3 212 -3 3 -64 c2 -36 -2 -69 -7 -74 -6 -6
-11 -20 -11 -30 0 -14 4 -17 18 -12 45 19 150 45 185 45 66 0 107 -31 107 -80
0 -17 -2 -18 -32 -3 -90 46 -268 -10 -313 -97 -35 -68 -9 -123 77 -160 64 -27
151 -24 215 9 49 25 53 25 53 9 0 -7 18 -21 40 -30 l40 -17 0 147 c0 215 -18
260 -112 282 -45 11 -73 10 -166 -7 l-33 -5 3 43 3 44 448 2 447 2 0 -142 c1
-179 8 -212 58 -259 75 -70 194 -78 326 -23 18 8 18 2 14 -117 -4 -117 -6
-129 -32 -168 -49 -74 -184 -117 -281 -90 -53 15 -108 70 -103 103 4 28 75 65
140 73 26 4 48 12 48 18 0 6 -14 27 -29 46 l-29 35 -49 -13 c-87 -24 -143 -78
-143 -139 0 -42 58 -105 122 -134 46 -21 68 -24 163 -24 100 0 115 2 160 27
60 31 89 60 110 110 12 31 15 87 15 313 l0 275 -27 11 c-16 6 -39 13 -53 15
l-25 6 3 -82 c5 -95 -10 -162 -45 -208 -50 -65 -110 -86 -182 -61 -54 19 -61
46 -61 249 l0 181 258 -3 257 -3 3 -64 c2 -36 -2 -69 -7 -74 -9 -9 -16 -47 -8
-47 1 0 27 9 57 21 30 11 84 23 120 26 61 5 68 4 98 -22 34 -29 45 -72 15 -61
-108 42 -245 10 -313 -72 -83 -101 18 -214 181 -199 30 3 74 14 97 26 34 17
42 19 49 7 4 -8 25 -21 47 -30 l38 -16 -4 168 c-5 187 -14 219 -71 249 -35 18
-115 23 -190 10 l-48 -8 3 43 3 43 168 3 167 2 0 30 0 30 -1450 0 -1450 0 0
36 c0 54 -30 174 -57 229 -38 76 -49 85 -106 85 -49 0 -49 0 -33 -22z m-1668
-677 c58 -15 69 -32 44 -64 -31 -40 -125 -79 -200 -85 -55 -4 -69 -1 -90 16
-24 20 -24 22 -10 49 22 39 87 82 140 92 47 9 49 9 116 -8z m2570 -23 c21 -21
-6 -53 -79 -89 -99 -51 -237 -50 -237 1 0 44 79 106 152 119 49 8 142 -9 164
-31z m464 13 c19 -9 35 -23 35 -30 0 -8 -19 -30 -43 -48 -79 -60 -216 -83
-263 -44 -23 19 -23 21 -7 48 37 62 137 107 213 95 17 -2 46 -12 65 -21z
m1567 8 c51 -16 60 -35 33 -64 -65 -69 -239 -109 -290 -67 -24 20 -24 21 -9
49 48 81 156 115 266 82z"/>
<path d="M1834 815 c-37 -19 -68 -35 -70 -35 -2 0 -4 11 -4 25 0 23 -4 25 -40
25 l-40 0 0 -193 0 -193 35 -17 c20 -9 37 -17 39 -17 2 0 5 48 7 108 4 95 8
114 34 167 41 82 98 125 167 125 41 0 54 -5 79 -29 26 -26 29 -36 29 -91 0
-77 -19 -123 -76 -181 l-45 -46 48 -31 48 -31 21 20 c12 11 34 47 49 80 60
134 17 276 -100 330 -60 28 -104 24 -181 -16z"/>
<path d="M4875 825 c-71 -29 -65 -29 -65 -10 0 11 -12 15 -50 15 l-50 0 0
-188 0 -188 39 -22 c21 -12 44 -22 50 -22 7 0 11 39 11 124 0 143 10 177 71
236 53 51 101 68 134 46 14 -9 25 -25 25 -36 0 -24 -31 -57 -66 -70 l-25 -10
32 -40 c18 -22 37 -40 42 -40 5 0 30 20 55 45 39 40 44 49 38 77 -8 41 -31 66
-81 89 -53 25 -88 23 -160 -6z"/>
</g>
</svg>
